<svg xmlns="http://www.w3.org/2000/svg" viewBox="0 0 235.58 227.78">
  <title>black_reindeer</title>
  <g id="Layer_2" data-name="Layer 2">
    <g id="Layer_1-2" data-name="Layer 1">
      <path d="M1.63,90.26l2,2.08a6.28,6.28,0,0,0,.63,1.89c.38.5,3.29,2.26,4.67,2s3.16,0,9.14-4.11c0,0,13.43-2.6,17.47-2.48,0,0,2.58.82,6.06,4.91s4.73,4.73,6.37,5.86,4.62,8.76,6.51,11.28,11.62,13.36,14,15.5,7.32,8.7,8.9,10.27,7.76,5.6,11.67,6.61c0,0,2.4-1,3.6,3.21s2.79,9,2.79,9-4.2,23.28-3.82,26.93,1.58,4.73,1.39,6.06-1.62,17.78-1.68,18.22-.81,12-.81,12l8,1.13L96.38,210l3.81-26.93,1.34,6.49,1.85,25,8.89.81s-3.16-12.61-3.48-13.56-2.54-13.87-2.35-15.19,1.43-19.62,1.24-24.6-.21-14.44-.21-14.44,10.6,1.5,14.76,3.89,20.06,7.8,25.11,7.17,9-.08,23.45-3.43c0,0,1-.32,2.84,2.2,0,0,10,18.09,16.81,27.6,0,0,.56-.82.45,6.37s-12.33,29.78-12.33,29.78l5.93,5.8s6.55-11.24,8.75-17.23,13.22-23.35,13.22-23.35S195.28,170,195.9,165.53,212,141.23,215,139c0,0,6-7.39,5.91-14.58a4.25,4.25,0,0,0,2.78,1c2.84-1,6.74-6.25,9.26-8.15l1.51-1.13a10.68,10.68,0,0,1-2.14-.76c-.93-.37-6.57-10.84-11.8-8.88a29.92,29.92,0,0,0-6.07,3.16,27.24,27.24,0,0,0-8.25-7s.5-.38-5.87-3.08S141.9,89,129.1,87.19,107.15,80,101.22,80.54s-19.61,8-28.57,1.36S53,64.22,53,64.22L54.9,54.13,50.81,57.6,52,52.36S47.91,59,46.14,58.74c-.82-.12-1.6-1.2-2.2-2.32A5.11,5.11,0,0,0,45.32,55c1.2-2.08,15.82-6.76,23.95-13.27S85.83,23.38,87.16,20.42s3.21-3.6,5.16-4.68,3.41-1.76,3.34-4.48-5.3-.75-6.87.83-2.78.51-4.42-.62-2.15-3.91-4.55-6-2,1.51-1.06,4.35,2,4.79,1.9,8.83-1.2,2.08-3.47,2.21S75.49,17,74,14.55s-.32-4.1-.89-6.43-2.46-1.7-4-.56a2.33,2.33,0,0,0-.62,2.05c1.23.2,2.39,1.31,2.26,2.24a7,7,0,0,1-1.46,2.21c.15.74.3,1.46.4,2.14.44,3.21,4.61,8.76,5.18,11.09s-3,5.43-4.28,4.8-1.14-1.51-2.53-4.41S66.51,26.1,67,23s-.57-2.33-1.2-4.22a1.44,1.44,0,0,0-.23-.42,18.82,18.82,0,0,0-1.69,2c.58-1.29,1.24-2.46,1.69-2,1.17-1.29,2.69-3,3.8-4.31a26.6,26.6,0,0,1-.8-4.45A2,2,0,0,0,67,10a14,14,0,0,0-3.66,3.53c-1.13,1.64-1.76,2.91-2.58,2.34a2.47,2.47,0,0,1-.89-3.28c.7-1.7,2.52-1.89,3.22-3.6S63,6.68,61.57,7s-5.23,2-5,.63l.18-1.32c-.69-1.45.76-2.15-1.7-3.85S50.88,0,50.32.84,48.11.53,48.93,4.25s1.9,5.67,2.47,8,3.29,8.58,2.91,11.23S52.93,30,52.94,33.19s.45,6.37-1.19,8.39a24.64,24.64,0,0,1-5.11,4.23,40.13,40.13,0,0,0-3.7,2.59c-2.1-.85-7.36-5.7-9.1-7.56-2-2.08-5.75-4-6.38-5.86s.63-1.26,2.58-5.49l.63-1.26c.63-1.26-1.26-.63-3.53-.5s-2,1.52-3.15,3.16-1,3.91-1.19,5.23-1.89.64-2.72.07-3.65.38-5.54,1-.76-1-1.08-1.95.25-1.77.88-3,.57-.82-.13-2.27c-.62-1.3-1.75,1-2,1.43a6.8,6.8,0,0,0,.41-3c-.26-1.39-2.84,1-3.41,1.77s-.37,9,0,9.9,11.17,7,11.93,8,11.48,4.78,11.8,5.73S31,58,30.8,59.35s1.32.19,1.32.19l.58,0a28.88,28.88,0,0,1-2.91,3.77c-1,.76-5.1,1.08-5.29,2.4a8.38,8.38,0,0,1-1.39,3.41c-.56.82-12.41,8.15-13.42,8.91S3,80.63,1.81,82.72-.32,88.18,1.63,90.26Z" style="stroke: #000;stroke-miterlimit: 10"/>
    </g>
  </g>
</svg>
