<svg xmlns="http://www.w3.org/2000/svg" viewBox="0 0 1243.75 1062">
  <title>journal_bkg</title>
  <g id="Layer_2" data-name="Layer 2">
    <g id="journal">
      <g>
        <polygon points="0.58 1062 0.58 562 184.58 0 484.58 624 694.58 330 952.58 752 1242.58 574 1242.58 1062 0.58 1062" style="fill: #709f88"/>
        <polyline points="166.58 56 206.58 86 220.08 73.85" style="fill: none;stroke: #e8e8e8;stroke-miterlimit: 10;stroke-width: 4px;opacity: 0.99"/>
        <polyline points="136.7 146.24 177.58 134 204.58 179 234.58 142 269.77 177.19" style="fill: none;stroke: #e8e8e8;stroke-miterlimit: 10;stroke-width: 4px"/>
        <path d="M97.1,267.18h0L177.58,218l26,61,23-56,37,56s21-37.54,30.51-51.21" style="fill: none;stroke: #e8e8e8;stroke-miterlimit: 10;stroke-width: 4px"/>
        <polyline points="78.44 324.19 94.58 310 203.58 373 263.58 321 320.58 385 351.12 346.4" style="fill: none;stroke: #e8e8e8;stroke-miterlimit: 10;stroke-width: 4px"/>
        <polyline points="42.56 433.78 89.58 492 223.58 428 320.58 494 384.58 416" style="fill: none;stroke: #e8e8e8;stroke-miterlimit: 10;stroke-width: 4px"/>
        <path d="M672.75,360.56c4.53,6.35,8.44,10.52,9.83,8.44,4-6,16-23,16-23l21,35,3.1-5" style="fill: none;stroke: #e8e8e8;stroke-miterlimit: 10;stroke-width: 4px"/>
        <path d="M639.45,407.18c6.81,23.06,22.26,72.64,26.13,61.82,5-14,31-43,31-43l37,43,22.56-38.3" style="fill: none;stroke: #e8e8e8;stroke-miterlimit: 10;stroke-width: 4px"/>
        <path d="M576.9,494.75c15.65-4.08,29.68-6.75,29.68-6.75v52l74-28,47,59s39-67,43-59,47,59,47,59l14.76-15.67" style="fill: none;stroke: #e8e8e8;stroke-miterlimit: 10;stroke-width: 4px"/>
        <path d="M881.78,535.41c4.38-4.66,2.27-12.44-.42-17.11s-15.4-8.93-17.66-10.62-28.83-18.13-30.1-20a18.79,18.79,0,0,1-3.11-7.63c-.42-3-9.61-3.69-11.87-5.39-1-.74-3.74-4.48-6.53-8.47l1.3.12s3.39,2.55,3-.42-5.5-10.33-4.79-12.45,24.76-10.58,26.46-12.84,26-15.82,26.74-17.94,1.15-20.36-.12-22.2-7.06-7.08-7.64-4a14.69,14.69,0,0,0,.91,6.73c-.51-1.07-3-6.11-4.44-3.19-1.56,3.25-1.7,2.26-.29,5.08s2.69,4.67,2,6.79,1.83,5.8-2.41,4.39-10.61-3.55-12.45-2.28-5.66,2.83-6.08-.15-.13-8.06-2.67-11.74-2-6.79-7.07-7.07-9.33-1.71-7.92,1.12L818,399c4.38,9.48,7.21,8.07,5.79,12.31s-9.91,8.48-14.3,13.14c-3.91,4.16-15.71,15.06-20.42,17-2.32-2.26-5.83-4-8.3-5.82-3.39-2.54-7.77-4.95-11.44-9.48s-2.68-11.74-2.67-18.81-2.25-15.84-3.09-21.79,5.25-19.93,6.53-25.16,3.68-9.62,5.53-18-1.83-5.8-3.1-7.64-5.09-.28-10.61,3.53-2.27,5.37-3.83,8.62l.42,3c.42,3-8.2-.86-11.31-1.42s-4.95.7-3.4,4.52,5.65,4.25,7.21,8.07-.15,6.08-2,7.34-3.26-1.55-5.79-5.23-4.81-5.38-8.2-7.93a4.4,4.4,0,0,0-3.41-.76,66.36,66.36,0,0,1-1.79,10c2.49,3,5.9,6.76,8.51,9.66,1-1,2.5,1.63,3.8,4.54a39.54,39.54,0,0,0-3.8-4.54,2.63,2.63,0,0,0-.5.93c-1.42,4.25-3.68,2.55-2.7,9.48s.57,4-2.55,10.46-2.84,8.48-5.67,9.89-10.88-5.52-9.6-10.75,10.62-17.67,11.62-24.88c.21-1.52.54-3.14.89-4.79-1.84-2.23-3.16-4.09-3.29-5-.29-2.08,2.32-4.57,5.08-5,.08-2.1-.25-3.76-1.39-4.61-3.39-2.56-7.63-4-8.91,1.26s1.26,8.91-2,14.42-2,14.42-7.08,14.14-7.5,4.09-7.77-5,2.13-13.43,4.25-19.79,3-14.57-2.39-9.77-6.51,11-10.19,13.57-6.37,4.95-9.9,1.4S671,352.21,670.8,358.3s3.1,7.63,7.49,10,8.62,3.83,11.59,10.48,21.89,33.25,40.11,47.84,51,25.08,53.71,29.74a11.56,11.56,0,0,0,3.1,3.14c-1.35,2.53-3.1,4.95-4.94,5.21-4,.56-13.14-14.3-13.14-14.3l2.68,11.74-9.19-7.79L766.43,477s-23.78,24.58-43.87,39.55-50.77-1.89-64.07-3S624.68,524.42,596,528.49s-145.4,21.64-159.69,27.71-13.16,6.92-13.16,6.92a60.82,60.82,0,0,0-18.51,15.67,65.27,65.27,0,0,0-13.6-7.08c-11.73-4.39-24.39,19.08-26.46,19.92a28.05,28.05,0,0,1-4.81,1.69l3.39,2.55c5.65,4.25,14.41,16.14,20.77,18.26,1.38.47,3.61-.43,6.24-2.13-.2,16.12,13.25,32.7,13.25,32.7,6.78,5.09,41.39,49.68,42.79,59.58s-23.66,46.79-23.66,46.79,24.71,38.91,29.64,52.35,19.63,38.63,19.63,38.63l13.31-13s-27.39-50.66-27.66-66.78,1-14.28,1-14.28c15.16-21.34,37.68-61.91,37.68-61.91,4.25-5.65,6.37-4.94,6.37-4.94,32.38,7.53,41.29,6.26,52.6,7.69s47-10.71,56.3-16.07,33.1-8.74,33.1-8.74,0,21.22-.45,32.38,2.35,52.19,2.77,55.16-4.56,32-5.26,34.08S633.74,816,633.74,816l19.94-1.81,4.16-56.14,3-14.57,8.57,60.4L664.7,827.8l17.82-2.52s-1.67-26-1.81-27-3.36-37.9-3.78-40.87,2.27-5.37,3.13-13.57-8.58-60.4-8.58-60.4,3.55-10.6,6.24-20.08,8.07-7.2,8.07-7.2c8.78-2.25,22.64-11.29,26.18-14.82s14.58-18.23,20-23,27.18-29.12,31.43-34.77,10.91-22.76,14.59-25.3,6.51-4,14.3-13.14,13.58-11,13.58-11c9.06-.28,39.17,5.55,39.17,5.55,13.43,9.2,17.39,8.64,20.5,9.21s9.62-3.39,10.47-4.51a14.37,14.37,0,0,0,1.42-4.25l4.39-4.66m-70.06-95.1s2.2-2.93,4.95-6.24h0c1.32-.93,3.1-2.19,5.66-4.35,3.41-2.87,8-3.88,11.87-4.13a44,44,0,0,0-5.65,5.27c-1.7,2.26-16.84,9.46-16.84,9.46m-57.4-9.22c-4.3-1.76-7.48-3.43-8.2-4.7-2.69-4.67-11.17-7.51-10.6-10.62s5.53-10.88,6.66-17.11c.79-4.28,2.11-8.16,2.34-11.41-1-4-1.86-7.18-2.27-8.3.69,1.55,1.32,3.15,1.78,4.3a8.72,8.72,0,0,1,.49,4c2.26,9,5.24,22.12,5.71,25.42a150.44,150.44,0,0,0,4.09,18.42" style="fill: #1c1c1c"/>
        <path d="M.58,1062s-1.31-89.19,0-145c0,0,364.56-91.89,548-107,267-22,690.07,26.9,694,76,4,50-3.89,173.25,0,176Z" style="fill: #c1c1c1"/>
      </g>
    </g>
  </g>
</svg>
