<svg xmlns="http://www.w3.org/2000/svg" viewBox="0 0 255 91">
  <title>menu_button_big</title>
  <g id="Layer_2" data-name="Layer 2">
    <g id="main_page" data-name="main page">
      <g>
        <g>
          <rect width="255" height="23" rx="11.5" style="fill: #fff"/>
          <path d="M255,11.5A11.54,11.54,0,0,1,243.5,23H11.5A11.53,11.53,0,0,1,0,11.5a11.37,11.37,0,0,1,.4-3A11.54,11.54,0,0,0,11.5,17h232a11.44,11.44,0,0,0,8.12-3.38,11.46,11.46,0,0,0,3-5.12A11.37,11.37,0,0,1,255,11.5Z" style="opacity: 0.19"/>
        </g>
        <g>
          <rect y="34" width="255" height="23" rx="11.5" style="fill: #fff"/>
          <path d="M255,45.5A11.54,11.54,0,0,1,243.5,57H11.5A11.53,11.53,0,0,1,0,45.5a11.37,11.37,0,0,1,.4-3A11.54,11.54,0,0,0,11.5,51h232a11.56,11.56,0,0,0,11.1-8.5A11.37,11.37,0,0,1,255,45.5Z" style="opacity: 0.19"/>
        </g>
        <g>
          <rect y="68" width="255" height="23" rx="11.5" style="fill: #fff"/>
          <path d="M255,79.5A11.54,11.54,0,0,1,243.5,91H11.5A11.53,11.53,0,0,1,0,79.5a11.37,11.37,0,0,1,.4-3A11.54,11.54,0,0,0,11.5,85h232a11.56,11.56,0,0,0,11.1-8.5A11.37,11.37,0,0,1,255,79.5Z" style="opacity: 0.19"/>
        </g>
      </g>
    </g>
  </g>
</svg>
