<svg xmlns="http://www.w3.org/2000/svg" viewBox="0 0 1023 1284.5">
  <title>mountain</title>
  <g id="Layer_2" data-name="Layer 2">
    <g id="mood_tracker" data-name="mood tracker">
      <g>
        <g id="grup5">
          <polygon id="t13" points="309.18 547.4 533.5 626.5 633.46 476.03 487 436.5 309.18 547.4" style="fill: #fff;stroke: #000;stroke-linecap: round;stroke-linejoin: round;stroke-width: 3px"/>
          <text transform="translate(470.18 564.34) scale(0.74 1)" style="font-size: 34.43389129638672px;font-family: BradleyHandITC, Bradley Hand ITC">5</text>
        </g>
        <g id="grup1">
          <polygon id="t21" points="442 218.5 408 238.5 480 1.5 494.21 121.62 494 172.5 494 180.5 442 218.5" style="fill: #fff;stroke: #000;stroke-linecap: round;stroke-linejoin: round;stroke-width: 3px"/>
          <text transform="translate(457.58 114.63) scale(0.74 1)" style="font-size: 34.43389129638672px;font-family: BradleyHandITC, Bradley Hand ITC">1</text>
        </g>
        <g id="grup2">
          <polygon id="t22" points="398 268.5 417 208.5 500 177.5 500 447.5 500 511.5 398 268.5" style="fill: #fff;stroke: #000;stroke-linecap: round;stroke-linejoin: round;stroke-width: 3px"/>
          <text transform="translate(436.63 272.53) scale(0.74 1)" style="font-size: 34.43389129638672px;font-family: BradleyHandITC, Bradley Hand ITC">2</text>
        </g>
        <g id="grup3">
          <polygon id="t23" points="309.18 547.4 392 246.5 500 511.5 309.18 547.4" style="fill: #fff;stroke: #000;stroke-linecap: round;stroke-linejoin: round;stroke-width: 3px"/>
          <text transform="translate(371.87 368.78) scale(0.74 1)" style="font-size: 34.43389129638672px;font-family: BradleyHandITC, Bradley Hand ITC">3</text>
        </g>
        <g id="grup4">
          <polygon id="t20" points="559 249.5 632.36 477.99 500 440.5 494 120.5 559 249.5" style="fill: #fff;stroke: #000;stroke-linecap: round;stroke-linejoin: round;stroke-width: 3px"/>
          <text transform="translate(545.24 379.77) scale(0.74 1)" style="font-size: 34.43389129638672px;font-family: BradleyHandITC, Bradley Hand ITC">4</text>
        </g>
        <g id="grup6">
          <polygon id="t19" points="754.75 804.65 688 368.5 633.55 476.24 754.75 804.65" style="fill: #fff;stroke: #000;stroke-linecap: round;stroke-linejoin: round;stroke-width: 3px"/>
          <text transform="translate(668.16 484.36) scale(0.74 1)" style="font-size: 34.43389129638672px;font-family: BradleyHandITC, Bradley Hand ITC">6</text>
        </g>
        <g id="grup7">
          <polygon id="t14" points="633.55 476.24 533.5 626.5 584.5 732.5 710.68 688.53 633.55 476.24" style="fill: #fff;stroke: #000;stroke-linecap: round;stroke-linejoin: round;stroke-width: 3px"/>
          <text transform="translate(631.15 626.93) scale(0.74 1)" style="font-size: 34.43389129638672px;font-family: BradleyHandITC, Bradley Hand ITC">7</text>
        </g>
        <g id="grup8">
          <polygon id="t18" points="728 629.5 849.91 710.91 882.08 865.89 844.66 935.47 754.75 804.65 728 629.5" style="fill: #fff;stroke: #000;stroke-linecap: round;stroke-linejoin: round;stroke-width: 3px"/>
          <text transform="translate(784.37 711.54) scale(0.74 1)" style="font-size: 34.43389129638672px;font-family: BradleyHandITC, Bradley Hand ITC">8</text>
        </g>
        <g id="grup9">
          <polygon id="t5" points="576.71 784.33 844.66 935.47 754.75 804.65 710.68 688.53 584.5 732.5 576.71 784.33" style="fill: #fff;stroke: #000;stroke-linecap: round;stroke-linejoin: round;stroke-width: 3px"/>
          <text transform="translate(664.72 774.13) scale(0.74 1)" style="font-size: 34.43389129638672px;font-family: BradleyHandITC, Bradley Hand ITC">9</text>
        </g>
        <g id="grup10">
          <polygon id="t12" points="533.5 626.5 441.5 771.5 454.45 1088.36 543.4 922.18 576.75 784.44 584.5 732.5 533.5 626.5" style="fill: #fff;stroke: #000;stroke-miterlimit: 10;stroke-width: 3px"/>
          <text transform="translate(513.22 808.9) scale(0.74 1)" style="font-size: 34.43389129638672px;font-family: BradleyHandITC, Bradley Hand ITC">10</text>
        </g>
        <g id="grup11">
          <polygon id="t6" points="309.18 547.4 348.81 915.84 533.5 626.5 309.18 547.4" style="fill: #fff;stroke: #000;stroke-linecap: round;stroke-linejoin: round;stroke-width: 3px"/>
          <text transform="translate(390.98 683.72) scale(0.74 1)" style="font-size: 34.43389129638672px;font-family: BradleyHandITC, Bradley Hand ITC">11</text>
        </g>
        <g id="grup12">
          <polygon id="t24" points="286.67 338.16 348.81 915.84 235.15 716.82 286.67 338.16" style="fill: #fff;stroke: #000;stroke-linecap: round;stroke-linejoin: round;stroke-width: 3px"/>
          <text transform="translate(261.86 665.18) scale(0.74 1)" style="font-size: 34.43389129638672px;font-family: BradleyHandITC, Bradley Hand ITC">12</text>
        </g>
        <g id="grup13">
          <polygon id="t25" points="286.67 338.16 149.75 567.27 235.15 716.82 286.67 338.16" style="fill: #fff;stroke: #000;stroke-linecap: round;stroke-linejoin: round;stroke-width: 3px"/>
          <text transform="translate(190.41 560.86) scale(0.74 1)" style="font-size: 34.43389129638672px;font-family: BradleyHandITC, Bradley Hand ITC">13</text>
        </g>
        <g id="grup14">
          <polygon id="t26" points="130.89 735.03 149.75 567.27 274.32 785.94 130.89 735.03" style="fill: #fff;stroke: #000;stroke-linecap: round;stroke-linejoin: round;stroke-width: 3px"/>
          <text transform="translate(155.12 697.63) scale(0.74 1)" style="font-size: 34.43389129638672px;font-family: BradleyHandITC, Bradley Hand ITC">14</text>
        </g>
        <g id="grup15">
          <polygon id="t30" points="109.77 929.66 131.17 735.58 275.8 787.99 348.82 916.19 109.77 929.66" style="fill: #fff;stroke: #000;stroke-miterlimit: 10;stroke-width: 3px"/>
          <text transform="translate(183.53 819.33) scale(0.74 1)" style="font-size: 34.43389129638672px;font-family: BradleyHandITC, Bradley Hand ITC">15</text>
        </g>
        <g id="grup16">
          <polygon id="t11" points="348.81 915.84 311.98 1180.22 246.04 1020.44 109.71 929.93 348.81 915.84" style="fill: #fff;stroke: #000;stroke-linecap: round;stroke-linejoin: round;stroke-width: 3px"/>
          <text transform="translate(251.53 980.44) scale(0.74 1)" style="font-size: 34.43389129638672px;font-family: BradleyHandITC, Bradley Hand ITC">16</text>
        </g>
        <g id="grup17">
          <polygon id="t2" points="348.81 915.84 441.5 771.5 454.72 1089.07 348.81 915.84" style="fill: #fff;stroke: #000;stroke-linecap: round;stroke-linejoin: round;stroke-width: 3px"/>
          <text transform="translate(408.2 924.81) scale(0.74 1)" style="font-size: 34.43389129638672px;font-family: BradleyHandITC, Bradley Hand ITC">17</text>
        </g>
        <g id="grup18">
          <polygon id="t3" points="543.4 1008.3 678.76 975.58 576.71 784.33 543.4 922.61 543.4 1008.3" style="fill: #fff;stroke: #000;stroke-linecap: round;stroke-linejoin: round;stroke-width: 3px"/>
          <text transform="translate(573.47 921.33) scale(0.74 1)" style="font-size: 34.43389129638672px;font-family: BradleyHandITC, Bradley Hand ITC">18</text>
        </g>
        <g id="grup19">
          <polygon id="t4" points="576.71 784.33 678.76 975.58 844.66 935.47 576.71 784.33" style="fill: #fff;stroke: #000;stroke-linecap: round;stroke-linejoin: round;stroke-width: 3px"/>
          <text transform="translate(669.88 922.49) scale(0.74 1)" style="font-size: 34.43389129638672px;font-family: BradleyHandITC, Bradley Hand ITC">19</text>
        </g>
        <g id="grup20">
          <polygon id="t8" points="767.27 1175.36 844.66 935.47 543.4 1008.3 767.27 1175.36" style="fill: #fff;stroke: #000;stroke-linecap: round;stroke-linejoin: round;stroke-width: 3px"/>
          <text transform="translate(702.59 1032.6) scale(0.74 1)" style="font-size: 34.43389129638672px;font-family: BradleyHandITC, Bradley Hand ITC">20</text>
        </g>
        <g id="grup21">
          <polygon id="t17" points="882.08 865.89 935.53 997.28 767.27 1175.36 844.66 935.47 882.08 865.89" style="fill: #fff;stroke: #000;stroke-linecap: round;stroke-linejoin: round;stroke-width: 3px"/>
          <text transform="translate(861.84 982.76) scale(0.74 1)" style="font-size: 34.43389129638672px;font-family: BradleyHandITC, Bradley Hand ITC">21</text>
        </g>
        <g id="grup22">
          <polygon id="t16" points="935.53 997.28 958.5 896.5 1021.5 1281.5 857.5 1281.5 935.53 997.28" style="fill: #fff;stroke: #000;stroke-linecap: round;stroke-linejoin: round;stroke-width: 3px"/>
          <text transform="translate(926.14 1163.67) scale(0.74 1)" style="font-size: 34.43389129638672px;font-family: BradleyHandITC, Bradley Hand ITC">22</text>
        </g>
        <g id="grup23">
          <polygon id="t15" points="857.5 1281.5 770.78 1283 767.27 1175.36 935.53 997.28 857.5 1281.5" style="fill: #fff;stroke: #000;stroke-linecap: round;stroke-linejoin: round;stroke-width: 3px"/>
          <text transform="translate(823.11 1161.26) scale(0.74 1)" style="font-size: 34.43389129638672px;font-family: BradleyHandITC, Bradley Hand ITC">23</text>
        </g>
        <g id="grup24">
          <polygon id="t10" points="676.76 1107.82 766.88 1175.19 771.33 1282.98 621.23 1279.99 676.76 1107.82" style="fill: #fff;stroke: #000;stroke-linecap: round;stroke-linejoin: round;stroke-width: 3px"/>
          <text transform="translate(691.4 1211.1) scale(0.74 1)" style="font-size: 34.43389129638672px;font-family: BradleyHandITC, Bradley Hand ITC">24</text>
        </g>
        <g id="grup25">
          <polygon id="t31" points="543.4 1009.01 543.4 1279.99 621.23 1279.99 676.76 1107.82 543.4 1009.01" style="fill: #fff;stroke: #000;stroke-miterlimit: 10;stroke-width: 3px"/>
          <text transform="translate(572.61 1128.8) scale(0.74 1)" style="font-size: 34.43389129638672px;font-family: BradleyHandITC, Bradley Hand ITC">25</text>
        </g>
        <g id="grup26">
          <polygon id="t9" points="353.09 1279.83 543.4 1279.83 543.4 922.61 353.09 1279.83" style="fill: #fff;stroke: #000;stroke-linecap: round;stroke-linejoin: round;stroke-width: 3px"/>
          <text transform="translate(436.6 1192.55) scale(0.74 1)" style="font-size: 34.43389129638672px;font-family: BradleyHandITC, Bradley Hand ITC">26</text>
        </g>
        <g id="grup27">
          <polygon id="t7" points="348.81 915.84 311.98 1180.22 353.09 1279.83 454.72 1089.07 348.81 915.84" style="fill: #fff;stroke: #000;stroke-linecap: round;stroke-linejoin: round;stroke-width: 3px"/>
          <text transform="translate(348.8 1072.01) scale(0.74 1)" style="font-size: 34.43389129638672px;font-family: BradleyHandITC, Bradley Hand ITC">27</text>
        </g>
        <g id="grup28">
          <polygon id="t27" points="246.04 1020.44 353.09 1279.83 135.73 1283 246.04 1020.44" style="fill: #fff;stroke: #000;stroke-linecap: round;stroke-linejoin: round;stroke-width: 3px"/>
          <text transform="translate(220.54 1182.12) scale(0.74 1)" style="font-size: 34.43389129638672px;font-family: BradleyHandITC, Bradley Hand ITC">28</text>
        </g>
        <g id="grup29">
          <polygon id="t28" points="109.71 929.93 246.04 1020.44 135.73 1283 109.71 929.93" style="fill: #fff;stroke: #000;stroke-linecap: round;stroke-linejoin: round;stroke-width: 3px"/>
          <text transform="translate(131.02 1053.08) scale(0.74 1)" style="font-size: 34.43389129638672px;font-family: BradleyHandITC, Bradley Hand ITC">29</text>
        </g>
        <g id="grup30">
          <polygon id="t1" points="1.5 1281.5 109.71 929.93 135.73 1283 1.5 1281.5" style="fill: #fff;stroke: #000;stroke-linecap: round;stroke-linejoin: round;stroke-width: 3px"/>
          <text transform="translate(64 1186.51) scale(0.74 1)" style="font-size: 34.43389129638672px;font-family: BradleyHandITC, Bradley Hand ITC">30</text>
        </g>
        <g id="grup31">
          <polygon id="t29" points="38.5 878.5 1.5 1281.5 109.5 929.5 38.5 878.5" style="fill: #fff;stroke: #000;stroke-linecap: round;stroke-linejoin: round;stroke-width: 3px"/>
          <text id="_1" data-name="1" transform="translate(38.66 1008.29) scale(0.74 1)" style="font-size: 34.43389129638672px;font-family: BradleyHandITC, Bradley Hand ITC">31</text>
        </g>
      </g>
    </g>
  </g>
</svg>
