<svg xmlns="http://www.w3.org/2000/svg" viewBox="0 0 1084.35 1448.58">
  <title>raindeer_shadow</title>
  <g id="Layer_2" data-name="Layer 2">
    <g id="habit_tracker" data-name="habit tracker">
      <path d="M9.25,640.89l14.41,13.45s2.37,9.44,5.21,12.76,23.62,14.16,33.06,11.79,21.73-1.43,61.14-32.38c0,0,91.37-23.89,119.24-24.85,0,0,18.19,4.48,43.93,31.16s34.73,30.44,46.53,37.52,35.68,58.3,49.86,74.82,86,86.87,103.47,100.57,54.33,56.63,65.91,66.79,56,35.16,83.38,40.34c0,0,16.05-8,26.23,20.52s23.16,60.45,23.16,60.45-18.59,162.23-14.33,187.27,13,31.86,12.3,41.08-3.25,123.24-3.48,126.32c-.11,1.47-.17,20.55-.19,40.08h42.69l-6.6-25,14.31-187.25,12.06,44.16L765,1448.58h60.46c-6-18.62-26.15-81.23-28.35-86.65-2.6-6.37-23.66-94.44-23-103.66s1.12-135.76-2.43-170-7.84-99.41-7.84-99.41,73.68,5.62,103.44,20.26,141.7,44.81,176.16,38.18c25.77-5,9.72,3.36,40.9-4.47V588.46C1015,577.11,935.05,566.57,886,562.82c-89-6.82-154.44-39.61-195.06-33.45s-131.49,64-196.22,22S352,438.61,352,438.61l8.45-70.37L333.82,394l5.89-36.6s-25.23,47.47-37.53,46.53c-5.7-.43-11.56-7.52-16.2-15,4.07-3.43,7.23-7,8.88-10.26,7.32-14.87,106-53.64,159.11-102.07s106-133.94,113.74-154.95,20.53-26.22,33.53-34.49,22.65-13.7,21-32.36-36.84-2.83-47,8.75-18.89,4.72-30.7-2.34-16.53-26-34-39.66S497.31,32.88,505.12,52s16.06,32.1,17,60-7.3,14.88-22.89,16.79-13.47-25.74-24.57-42-4-28.11-9-43.92S448,32.18,438,40.69c-3.33,2.86-4,8-3.35,14.45,8.56.77,17.08,7.91,16.6,14.35-.21,2.73-3.92,8.71-9.13,15.94,1.42,5,2.77,9.9,3.71,14.53,4.5,22,35.68,58.3,40.65,74.13S468.1,212.83,459.12,209s-8.49-9.91-19.36-29.26-11.58-10.16-9.93-31.64-5-15.83-10.17-28.57a7.45,7.45,0,0,0-1.74-2.76c-5.61,7.11-9.92,12.71-10.75,14.68,3.41-9.2,7.45-17.53,10.75-14.68,7.46-9.43,17.2-21.56,24.23-31.38-3.06-10.69-6.55-21.65-7.47-30.29a13.64,13.64,0,0,0-10.33,3c-9.91,8.53-16.53,14.19-23.6,26S389.9,104.93,384,101.39s-11.56-10.13-7.57-22.18S392.94,65,397,53s-1.88-15.58-11.33-13.21-35.18,15.84-34.47,6.62l.7-9.2c-5.43-9.68,4.25-15.12-13.47-25.73s-29.77-14.63-33.3-8.73-15.35-1.17-8,24.09,15.61,38.25,20.57,54.07,26.47,57.6,25.06,76-6.59,45.8-5.16,67.54,5.92,43.68-4.46,58.33-23.36,22.92-33.28,31.41c-7.21,6.17-17.64,12.13-24.34,19.51-14.85-4.89-53.25-36-66.11-48-14.42-13.45-41.34-24.77-46.54-37.52s3.77-9,15.33-39l3.78-9c3.77-9-9-3.77-24.55-1.89s-13.23,11.35-20.31,23.15-5.19,27.39-5.88,36.61-12.75,5.2-18.65,1.65-25,4.26-37.79,9.47-5.67-6.6-8.27-13,.94-12.27,4.73-21.25,3.52-5.9-1.91-15.58c-4.89-8.68-11.65,7.32-13,10.71.75-2.57,3.46-12.72,1.44-20.85-2.37-9.46-19.13,7.8-22.67,13.7s1.45,61.87,4.05,68.23,80.07,43.18,85.72,49.79,81.26,27.84,83.86,34.2-11.57,30-12.26,39.22,9.21.69,9.21.69l4-.62c-7.78,12.8-15.5,24.85-18.36,27.3-6.62,5.69-34.71,9.71-35.41,18.92a58,58,0,0,1-8,24.08c-3.54,5.91-81.91,61.67-88.52,67.35S14.42,573.35,7.12,588.25-5.16,627.44,9.25,640.89ZM380.11,295.05C393,288.77,402.4,283,404.38,279c7.31-14.89,32.82-25.29,30.44-34.73S415.68,211.89,410.94,193c-3.25-13-8.08-24.68-9.45-34.59-5.13,28-11.69,69-12.48,79.24C388.19,248.36,384.5,276.85,380.11,295.05Zm21.38-136.64c2.29-12.49,4.28-22.43,5.33-26-1.79,4.89-3.43,9.93-4.62,13.58A27.31,27.31,0,0,0,401.49,158.41ZM133.54,294c6.44,4.66,15.06,11.14,18.43,15.07,5.67,6.61,53.61,25.72,53.61,25.72s-7.34-8.55-16.45-18.17c0,0,0,0,0,0-4.25-2.6-9.95-6.1-18.25-12.23C159.8,296.2,145.52,294,133.54,294Z" style="fill: #c8c8c8;opacity: 0.36"/>
    </g>
  </g>
</svg>
