<svg xmlns="http://www.w3.org/2000/svg" viewBox="0 0 113.03 74">
  <title>small_menu_button</title>
  <g id="Layer_2" data-name="Layer 2">
    <g id="mood_tracker" data-name="mood tracker">
      <g>
        <g>
          <rect width="113.03" height="18.7" rx="9.35" style="fill: #fff"/>
          <path d="M113,9.35a14,14,0,0,1-1.5,6.6c-.92,1.7-2.19,2.75-3.59,2.75H5.1C2.29,18.7,0,14.5,0,9.35A16,16,0,0,1,.18,6.91c.59,4,2.57,6.91,4.92,6.91H107.94c1.4,0,2.67-1,3.59-2.74a12.55,12.55,0,0,0,1.33-4.17A17.42,17.42,0,0,1,113,9.35Z" style="opacity: 0.19"/>
        </g>
        <g>
          <rect y="27.65" width="113.03" height="18.7" rx="9.35" style="fill: #fff"/>
          <path d="M113,37a14,14,0,0,1-1.5,6.6c-.92,1.7-2.19,2.75-3.59,2.75H5.1C2.29,46.35,0,42.15,0,37a15.91,15.91,0,0,1,.18-2.44c.59,4,2.57,6.91,4.92,6.91H107.94c1.4,0,2.67-1,3.59-2.75a12.41,12.41,0,0,0,1.33-4.16A17.31,17.31,0,0,1,113,37Z" style="opacity: 0.19"/>
        </g>
        <g>
          <rect y="55.3" width="113.03" height="18.7" rx="9.35" style="fill: #fff"/>
          <path d="M113,64.65a14,14,0,0,1-1.5,6.6c-.92,1.7-2.19,2.75-3.59,2.75H5.1C2.29,74,0,69.8,0,64.65a15.91,15.91,0,0,1,.18-2.44c.59,4,2.57,6.91,4.92,6.91H107.94c1.4,0,2.67-1.05,3.59-2.75a12.49,12.49,0,0,0,1.33-4.16A17.31,17.31,0,0,1,113,64.65Z" style="opacity: 0.19"/>
        </g>
      </g>
    </g>
  </g>
</svg>
