<svg xmlns="http://www.w3.org/2000/svg" viewBox="0 0 78.36 65.98">
  <title>X_button</title>
  <g id="Layer_2" data-name="Layer 2">
    <g id="mood_tracker" data-name="mood tracker">
      <g>
        <g>
          <rect x="-9.72" y="28.58" width="97.81" height="8.82" rx="3.51" transform="translate(29.81 -17.37) rotate(39.35)" style="fill: #fff"/>
          <path d="M77,64a4.43,4.43,0,0,1-6.21.62L2,8.19A4.42,4.42,0,0,1,1.37,2a4.16,4.16,0,0,1,.84-.79A4.43,4.43,0,0,0,3.44,6.41L72.25,62.84a4.45,4.45,0,0,0,5.36.18A4.21,4.21,0,0,1,77,64Z" style="opacity: 0.19"/>
        </g>
        <g>
          <rect x="-9.73" y="28.58" width="97.81" height="8.82" rx="3.51" transform="translate(90.4 33.66) rotate(140.65)" style="fill: #fff"/>
          <path d="M1.37,64a4.42,4.42,0,0,0,6.2.62L76.38,8.19A4.42,4.42,0,0,0,77,2a4,4,0,0,0-.85-.79,4.44,4.44,0,0,1-1.22,5.22L6.11,62.84a4.34,4.34,0,0,1-3.23,1A4.43,4.43,0,0,1,.75,63,4.25,4.25,0,0,0,1.37,64Z" style="opacity: 0.19"/>
        </g>
      </g>
    </g>
  </g>
</svg>
